<?xml version="1.0" encoding="UTF-8" standalone="no"?>
<!-- Created with Inkscape (http://www.inkscape.org/) -->

<svg
   width="55.894825mm"
   height="85.683098mm"
   viewBox="0 0 55.894825 85.683101"
   version="1.1"
   id="svg1"
   xml:space="preserve"
   xmlns="http://www.w3.org/2000/svg"
   xmlns:svg="http://www.w3.org/2000/svg"><defs
     id="defs1" /><g
     id="layer3"
     transform="translate(-71.459862,-101.44923)"><path
       id="path4"
       style="fill:none;stroke:#000000;stroke-width:2.2768;stroke-opacity:1"
       d="m 97.439093,102.60206 -3.68888,1.47009 -2.70521,5.25038 -1.22962,5.8804 -1.96741,6.09041 v 5.88042 l -2.21333,4.20029 -1.47556,6.30042 -6.148154,7.1405 c 0,0 -4.426682,8.40057 -4.426682,9.24062 0,0.84007 -0.983713,13.65094 -0.983713,13.65094 l 0.491858,9.45068 0.737782,0.84004 0.983713,2.94019 6.394088,3.15022 4.672608,1.47012 6.14815,-1.89015 5.41038,0.63005 2.45927,-0.63005 9.837057,2.31016 8.60742,-1.05006 3.68892,-3.15022 3.93481,-5.8804 0.24584,-12.39086 -2.21336,-6.30044 -3.19702,-10.2907 -5.65631,-7.98055 -5.16446,-10.71074 -2.21334,-14.28098 -0.98371,-6.30042 -2.95113,-4.62033 z" /></g></svg>
