<?xml version="1.0" encoding="UTF-8" standalone="no"?>
<!-- Created with Inkscape (http://www.inkscape.org/) -->

<svg
   width="5.9057493mm"
   height="9.4415827mm"
   viewBox="0 0 5.9057493 9.441583"
   version="1.1"
   id="svg1"
   xml:space="preserve"
   xmlns="http://www.w3.org/2000/svg"
   xmlns:svg="http://www.w3.org/2000/svg"><defs
     id="defs1" /><path
     style="fill:none;stroke:#000000;stroke-width:0.264583;stroke-opacity:1"
     d="m 3.4384541,4.0940205 -0.0747,0.317467 1.400593,0.186746 0.373491,0.653608 0.298791,0.597586 0.168072,0.578911 0.112048,0.61626 0.05602,0.989751 -0.09337,0.504212 -0.20542,0.373491 -0.522885,0.261444 -0.541563,0.130722 -0.690959,-0.224095 -0.392166,-0.112047 -0.522885,0.112047 -0.149397,-0.03735 -0.485539,0.186746 h -0.448189 l -0.690965,-0.112048 -0.48552997,-0.317467 -0.33614,-0.504213 -0.0747,-1.064449 0.13072,-0.78433 0.1494,-0.746982 0.28011,-0.41084 0.41083997,-0.541562 0.42952,-0.541562 0.20542,-0.298793 0.112048,-0.597585 0.03735,-0.448189 0.03735,-0.541562 0.01868,-0.746982 0.112048,-0.541562 0.242768,-0.42951496 0.261443,-0.41084 0.298794,-0.05602 0.168071,0.03735 0.20542,0.05602 0.186746,0.0747 0.13072,0.168071 0.130723,0.168071 0.168071,0.56023596 0.130723,1.363242 0.298791,1.120473 0.485539,0.82168 0.01867,0.149396 z"
     id="path6" /></svg>
